<svg width="60" height="61" viewBox="0 0 60 61" fill="none" xmlns="http://www.w3.org/2000/svg">
<circle cx="30" cy="30.2539" r="30" fill="#E5F5FF"/>
<path d="M29.9994 39.5866C29.6216 39.5866 29.3047 39.4586 29.0487 39.2026C28.7927 38.9466 28.6651 38.6301 28.666 38.2533V31.5866H21.9994C21.6216 31.5866 21.3047 31.4586 21.0487 31.2026C20.7927 30.9466 20.6651 30.6301 20.666 30.2533C20.666 29.8755 20.794 29.5586 21.05 29.3026C21.306 29.0466 21.6225 28.919 21.9994 28.9199H28.666V22.2533C28.666 21.8755 28.794 21.5586 29.05 21.3026C29.306 21.0466 29.6225 20.919 29.9994 20.9199C30.3771 20.9199 30.694 21.0479 30.95 21.3039C31.206 21.5599 31.3336 21.8764 31.3327 22.2533V28.9199H37.9994C38.3771 28.9199 38.694 29.0479 38.95 29.3039C39.206 29.5599 39.3336 29.8764 39.3327 30.2533C39.3327 30.631 39.2047 30.9479 38.9487 31.2039C38.6927 31.4599 38.3762 31.5875 37.9994 31.5866H31.3327V38.2533C31.3327 38.631 31.2047 38.9479 30.9487 39.2039C30.6927 39.4599 30.3762 39.5875 29.9994 39.5866Z" fill="#005E99"/>
</svg>
