<svg width="25" height="16" viewBox="0 0 25 16" fill="none" xmlns="http://www.w3.org/2000/svg">
<g clip-path="url(#clip0_4607_25646)">
<path d="M22.1048 0H2.164C1.0627 0 0.169922 0.89543 0.169922 2V14C0.169922 15.1046 1.0627 16 2.164 16H22.1048C23.2061 16 24.0988 15.1046 24.0988 14V2C24.0988 0.89543 23.2061 0 22.1048 0Z" fill="#016FD0"/>
<path fill-rule="evenodd" clip-rule="evenodd" d="M13.8926 13.3938V7.69238L24.0101 7.70149V9.27638L22.8407 10.5298L24.0101 11.7947V13.403H22.143L21.1507 12.3048L20.1656 13.4071L13.8926 13.3938Z" fill="#FFFFFE"/>
<path fill-rule="evenodd" clip-rule="evenodd" d="M14.5684 12.7692V8.32031H18.3295V9.3452H15.7861V10.0409H18.2688V11.0487H15.7861V11.732H18.3295V12.7692H14.5684Z" fill="#016FD0"/>
<path fill-rule="evenodd" clip-rule="evenodd" d="M18.3106 12.7691L20.3918 10.5421L18.3105 8.32031H19.9214L21.1931 9.73035L22.4684 8.32031H24.01V8.35532L21.9732 10.5421L24.01 12.706V12.7691H22.4529L21.1587 11.3449L19.8777 12.7691H18.3106Z" fill="#016FD0"/>
<path fill-rule="evenodd" clip-rule="evenodd" d="M14.3642 2.63184H16.803L17.6596 4.58269V2.63184H20.6705L21.1897 4.09341L21.7107 2.63184H24.0098V8.33323H11.8594L14.3642 2.63184Z" fill="#FFFFFE"/>
<path fill-rule="evenodd" clip-rule="evenodd" d="M14.8275 3.25195L12.8594 7.69712H14.2093L14.5806 6.80696H16.5925L16.9636 7.69712H18.3471L16.3871 3.25195H14.8275ZM14.9967 5.80939L15.5869 4.39432L16.1767 5.80939H14.9967Z" fill="#016FD0"/>
<path fill-rule="evenodd" clip-rule="evenodd" d="M18.3281 7.69606V3.25098L20.2256 3.25752L21.202 5.99025L22.1847 3.25098H24.0109V7.69606L22.8357 7.70649V4.65314L21.7265 7.69606H20.6539L19.5216 4.64271V7.69606H18.3281Z" fill="#016FD0"/>
</g>
<defs>
<clipPath id="clip0_4607_25646">
<rect width="23.9289" height="16" fill="white" transform="translate(0.169922)"/>
</clipPath>
</defs>
</svg>
