<svg width="34" height="34" viewBox="0 0 34 34" fill="none" xmlns="http://www.w3.org/2000/svg">
<path d="M17.0007 22.959C17.2229 22.959 17.4312 22.924 17.6257 22.854C17.8201 22.7851 18.0007 22.6673 18.1673 22.5007L22.5007 18.1673C22.8062 17.8618 22.959 17.4729 22.959 17.0007C22.959 16.5284 22.8062 16.1395 22.5007 15.834C22.1951 15.5284 21.8062 15.3757 21.334 15.3757C20.8618 15.3757 20.4729 15.5284 20.1673 15.834L18.6673 17.334V12.0007C18.6673 11.5284 18.5079 11.1323 18.189 10.8123C17.869 10.4934 17.4729 10.334 17.0007 10.334C16.5284 10.334 16.1329 10.4934 15.814 10.8123C15.494 11.1323 15.334 11.5284 15.334 12.0007V17.334L13.834 15.834C13.5284 15.5284 13.1395 15.3757 12.6673 15.3757C12.1951 15.3757 11.8062 15.5284 11.5007 15.834C11.1951 16.1395 11.0423 16.5284 11.0423 17.0007C11.0423 17.4729 11.1951 17.8618 11.5007 18.1673L15.834 22.5007C16.0007 22.6673 16.1812 22.7851 16.3757 22.854C16.5701 22.924 16.7784 22.959 17.0007 22.959ZM17.0007 33.6673C14.6951 33.6673 12.5284 33.2295 10.5007 32.354C8.47287 31.4795 6.70898 30.2923 5.20898 28.7923C3.70898 27.2923 2.52176 25.5284 1.64732 23.5007C0.771762 21.4729 0.333984 19.3062 0.333984 17.0007C0.333984 14.6951 0.771762 12.5284 1.64732 10.5007C2.52176 8.47287 3.70898 6.70898 5.20898 5.20898C6.70898 3.70898 8.47287 2.52121 10.5007 1.64565C12.5284 0.771206 14.6951 0.333984 17.0007 0.333984C19.3062 0.333984 21.4729 0.771206 23.5007 1.64565C25.5284 2.52121 27.2923 3.70898 28.7923 5.20898C30.2923 6.70898 31.4795 8.47287 32.354 10.5007C33.2295 12.5284 33.6673 14.6951 33.6673 17.0007C33.6673 19.3062 33.2295 21.4729 32.354 23.5007C31.4795 25.5284 30.2923 27.2923 28.7923 28.7923C27.2923 30.2923 25.5284 31.4795 23.5007 32.354C21.4729 33.2295 19.3062 33.6673 17.0007 33.6673ZM17.0007 30.334C20.6951 30.334 23.8412 29.0357 26.439 26.439C29.0357 23.8412 30.334 20.6951 30.334 17.0007C30.334 13.3062 29.0357 10.1601 26.439 7.56232C23.8412 4.96565 20.6951 3.66732 17.0007 3.66732C13.3062 3.66732 10.1607 4.96565 7.56398 7.56232C4.96621 10.1601 3.66732 13.3062 3.66732 17.0007C3.66732 20.6951 4.96621 23.8412 7.56398 26.439C10.1607 29.0357 13.3062 30.334 17.0007 30.334Z" fill="#001F33"/>
</svg>
