<svg width="10" height="16" viewBox="0 0 10 16" fill="none" xmlns="http://www.w3.org/2000/svg">
<path d="M7.6045 15.5837L0.583672 8.58366C0.500338 8.50032 0.441172 8.41005 0.406172 8.31283C0.371172 8.2156 0.35395 8.11144 0.354505 8.00033C0.354505 7.88921 0.371727 7.78505 0.406172 7.68783C0.440616 7.5906 0.499783 7.50033 0.583672 7.41699L7.6045 0.396159C7.79895 0.201714 8.042 0.104492 8.33367 0.104492C8.62534 0.104492 8.87534 0.208659 9.08367 0.416992C9.292 0.625326 9.39617 0.868381 9.39617 1.14616C9.39617 1.42394 9.292 1.66699 9.08367 1.87533L2.95867 8.00033L9.08367 14.1253C9.27812 14.3198 9.37534 14.5595 9.37534 14.8445C9.37534 15.1295 9.27117 15.3759 9.06284 15.5837C8.8545 15.792 8.61145 15.8962 8.33367 15.8962C8.05589 15.8962 7.81284 15.792 7.6045 15.5837Z" fill="#001F33"/>
</svg>
