<svg width="40" height="40" viewBox="0 0 40 40" fill="none" xmlns="http://www.w3.org/2000/svg">
<circle cx="20" cy="20" r="20" fill="#B2E2FF"/>
<path d="M19.9994 14.041C19.7771 14.041 19.5688 14.076 19.3744 14.146C19.1799 14.2149 18.9994 14.3327 18.8327 14.4993L14.4994 18.8327C14.1938 19.1382 14.041 19.5271 14.041 19.9993C14.041 20.4716 14.1938 20.8605 14.4994 21.166C14.8049 21.4716 15.1938 21.6243 15.666 21.6243C16.1382 21.6243 16.5271 21.4716 16.8327 21.166L18.3327 19.666L18.3327 24.9993C18.3327 25.4716 18.4921 25.8677 18.811 26.1877C19.131 26.5066 19.5271 26.666 19.9994 26.666C20.4716 26.666 20.8671 26.5066 21.186 26.1877C21.506 25.8677 21.666 25.4716 21.666 24.9993L21.666 19.666L23.166 21.166C23.4716 21.4716 23.8605 21.6243 24.3327 21.6243C24.8049 21.6243 25.1938 21.4716 25.4994 21.166C25.8049 20.8605 25.9577 20.4716 25.9577 19.9993C25.9577 19.5271 25.8049 19.1382 25.4994 18.8327L21.166 14.4993C20.9994 14.3327 20.8188 14.2149 20.6244 14.146C20.4299 14.076 20.2216 14.041 19.9994 14.041V14.041ZM19.9994 3.33268C22.3049 3.33268 24.4716 3.77046 26.4994 4.64602C28.5271 5.52046 30.291 6.70768 31.791 8.20768C33.291 9.70768 34.4782 11.4716 35.3527 13.4994C36.2282 15.5271 36.666 17.6938 36.666 19.9993C36.666 22.3049 36.2282 24.4716 35.3527 26.4993C34.4782 28.5271 33.291 30.291 31.791 31.791C30.291 33.291 28.5271 34.4788 26.4993 35.3543C24.4716 36.2288 22.3049 36.666 19.9993 36.666C17.6938 36.666 15.5271 36.2288 13.4994 35.3543C11.4716 34.4788 9.70768 33.291 8.20768 31.791C6.70768 30.291 5.52046 28.5271 4.64602 26.4993C3.77046 24.4716 3.33268 22.3049 3.33268 19.9993C3.33268 17.6938 3.77046 15.5271 4.64602 13.4993C5.52046 11.4716 6.70768 9.70768 8.20768 8.20768C9.70768 6.70768 11.4716 5.52046 13.4994 4.64601C15.5271 3.77046 17.6938 3.33268 19.9994 3.33268ZM19.9994 6.66601C16.3049 6.66601 13.1588 7.96435 10.561 10.561C7.96435 13.1588 6.66602 16.3049 6.66602 19.9993C6.66602 23.6938 7.96435 26.8399 10.561 29.4377C13.1588 32.0343 16.3049 33.3327 19.9993 33.3327C23.6938 33.3327 26.8393 32.0343 29.436 29.4377C32.0338 26.8399 33.3327 23.6938 33.3327 19.9993C33.3327 16.3049 32.0338 13.1588 29.436 10.561C26.8394 7.96435 23.6938 6.66602 19.9994 6.66601Z" fill="white"/>
</svg>
