<svg width="25" height="16" viewBox="0 0 25 16" fill="none" xmlns="http://www.w3.org/2000/svg">
<g clip-path="url(#clip0_4607_25647)">
<path d="M22.0324 15.7499L22.0346 15.7499C22.9868 15.7581 23.7681 14.9773 23.78 14.0042L23.78 2.0063C23.7762 1.53569 23.5894 1.08617 23.2613 0.756802C22.934 0.428269 22.4928 0.246149 22.0324 0.250071L2.09506 0.250062C1.63688 0.246149 1.19567 0.428269 0.868347 0.756802C0.540188 1.08617 0.353436 1.53569 0.349618 2.00426L0.349609 13.9937C0.353436 14.4643 0.540188 14.9138 0.868347 15.2432C1.19567 15.5717 1.63688 15.7538 2.09718 15.7499H22.0324ZM22.0314 16.2499C22.031 16.2499 22.0307 16.2499 22.0303 16.2499L22.0324 16.2499H22.0314Z" fill="white" stroke="black" stroke-opacity="0.2" stroke-width="0.5"/>
<path d="M12.6758 16.0002H22.0328C22.558 16.0046 23.0635 15.7995 23.438 15.4301C23.8124 15.0607 24.0253 14.5573 24.0296 14.0305V11.6719C20.4963 13.7062 16.6643 15.167 12.6758 16.0002Z" fill="#F27712"/>
<path d="M23.2044 9.29692H22.3545L21.3974 8.03072H21.3066V9.29692H20.6135V6.15209H21.6367C22.437 6.15209 22.8991 6.48313 22.8991 7.07899C22.8991 7.56727 22.6103 7.88175 22.0905 7.98106L23.2044 9.29692ZM22.1813 7.10382C22.1813 6.79761 21.9502 6.64037 21.5211 6.64037H21.3066V7.59209H21.5046C21.9502 7.59209 22.1813 7.42658 22.1813 7.10382ZM18.1876 6.15209H20.1514V6.68175H18.8807V7.3852H20.1019V7.92313H18.8807V8.77554H20.1514V9.3052H18.1876V6.15209ZM15.9597 9.37968L14.458 6.14382H15.2171L16.166 8.26244L17.1232 6.14382H17.8658L16.3476 9.37968H15.9762H15.9597ZM9.68046 9.37141C8.62429 9.37141 7.79915 8.6514 7.79915 7.71623C7.79915 6.80589 8.64079 6.06934 9.69696 6.06934C9.99401 6.06934 10.2416 6.12727 10.5469 6.25968V6.98796C10.3157 6.76013 10.0046 6.63236 9.68046 6.63209C9.02035 6.63209 8.51702 7.11209 8.51702 7.71623C8.51702 8.35347 9.0121 8.80865 9.71347 8.80865C10.027 8.80865 10.2663 8.70934 10.5469 8.46106V9.18934C10.2333 9.32175 9.96926 9.37141 9.68046 9.37141ZM7.58462 8.33692C7.58462 8.94934 7.08129 9.37141 6.35517 9.37141C5.82708 9.37141 5.44752 9.18934 5.12572 8.77554L5.57954 8.38658C5.73632 8.66796 6.00036 8.80865 6.33041 8.80865C6.64397 8.80865 6.86675 8.6183 6.86675 8.37003C6.86675 8.22934 6.80074 8.12175 6.66047 8.03899C6.50666 7.96413 6.3465 7.9032 6.18189 7.85692C5.53003 7.65003 5.30725 7.42658 5.30725 6.98796C5.30725 6.47485 5.78583 6.08589 6.41293 6.08589C6.80899 6.08589 7.1638 6.21003 7.46085 6.44175L7.09779 6.85554C6.9539 6.69732 6.75022 6.6072 6.5367 6.60727C6.23965 6.60727 6.02511 6.75623 6.02511 6.95485C6.02511 7.12037 6.14888 7.21141 6.56145 7.35209C7.35358 7.60037 7.58462 7.83209 7.58462 8.3452V8.33692ZM4.17681 6.15209H4.86993V9.3052H4.17681V6.15209ZM1.94895 9.3052H0.925781V6.15209H1.94895C3.07113 6.15209 3.84676 6.79761 3.84676 7.72451C3.84676 8.19623 3.61572 8.64313 3.2114 8.94106C2.86485 9.18934 2.47703 9.3052 1.9407 9.3052H1.94895ZM2.75758 6.9383C2.52654 6.75623 2.2625 6.69003 1.80868 6.69003H1.61889V8.77554H1.80868C2.25425 8.77554 2.53479 8.69278 2.75758 8.52727C2.99687 8.32865 3.13714 8.03072 3.13714 7.72451C3.13714 7.4183 2.99687 7.12865 2.75758 6.9383Z" fill="#001F33"/>
<path d="M12.4764 6.06934C11.5688 6.06934 10.8262 6.79761 10.8262 7.69968C10.8262 8.65968 11.5358 9.37968 12.4764 9.37968C13.4006 9.37968 14.1267 8.6514 14.1267 7.72451C14.1267 6.79761 13.4088 6.06934 12.4764 6.06934Z" fill="#F27712"/>
</g>
<defs>
<clipPath id="clip0_4607_25647">
<rect width="23.9289" height="16" fill="white" transform="translate(0.0996094)"/>
</clipPath>
</defs>
</svg>
