<svg width="44" height="44" viewBox="0 0 44 44" fill="none" xmlns="http://www.w3.org/2000/svg">
<path d="M31.333 3.49219C32.8122 1.78385 34.6872 0.929688 36.958 0.929688C38.8538 0.929688 40.4372 1.61719 41.7497 3.01302C43.0622 4.40885 43.7497 5.99219 43.833 7.80469C43.833 9.26302 43.1455 10.9505 41.7497 12.9297C40.3538 14.9089 38.9997 16.5547 37.6455 17.9089C36.2913 19.2422 34.1872 21.2214 31.333 23.8464C28.4372 21.2214 26.3122 19.2422 24.958 17.9089C23.6038 16.5755 22.2288 14.9089 20.8538 12.9297C19.4788 10.9505 18.833 9.26302 18.833 7.80469C18.833 5.90885 19.4997 4.32552 20.8538 3.01302C22.208 1.70052 23.833 1.01302 25.7288 0.929688C27.958 0.929688 29.8122 1.78385 31.333 3.49219ZM43.833 36.3464V38.4297L27.1663 43.638L12.583 39.5964V42.5964H0.0830078V19.6797H16.6872L29.5205 24.4714C30.6641 24.9027 31.6492 25.6719 32.3451 26.6767C33.041 27.6814 33.4146 28.8742 33.4163 30.0964H37.583C41.0413 30.0964 43.833 32.888 43.833 36.3464ZM8.41634 38.4297V23.8464H4.24967V38.4297H8.41634ZM39.458 35.4505C39.1247 34.763 38.3955 34.263 37.583 34.263H26.4372C25.3122 34.263 24.208 34.0964 23.1455 33.7422L18.1872 32.0964L19.4997 28.138L24.458 29.7839C25.083 29.9922 29.2497 30.0964 29.2497 30.0964C29.2497 29.3255 28.7705 28.638 28.0622 28.3672L15.9372 23.8464H12.583V35.3047L27.1038 39.2839L39.458 35.4505Z" fill="#003F66"/>
</svg>
