<svg width="48" height="39" viewBox="0 0 48 39" fill="none" xmlns="http://www.w3.org/2000/svg">
<path d="M47.2422 0.75498L39.1777 8.36572L46.892 21.3501L47.2422 20.9147V0.754883V0.75498ZM0.757812 0.866016V22.9259C1.19531 22.9827 1.721 23.0141 2.25146 23.0196C3.41064 23.0318 4.36611 22.9562 4.90283 22.9079L10.0449 9.89668L0.757812 0.866016ZM38.7611 11.1062L38.0736 11.5512C38.059 11.5606 37.55 11.877 37.4005 11.9701L36.3648 12.5971L36.3795 12.6059C35.8996 12.9044 35.7662 12.9884 35.2216 13.3266C34.9452 13.4981 34.9384 13.5021 34.6763 13.6649C32.6948 12.5998 30.5448 11.7812 28.0358 11.1374C24.8804 12.0907 21.5376 13.4702 18.1997 14.7646C19.5854 16.4332 21.1255 16.9766 22.6768 16.996C24.4756 17.0185 26.3145 16.2362 27.5809 15.3599L28.3035 14.8599L29.0287 15.9077L40.3034 24.0454L44.7089 21.117L38.761 11.1062H38.7611ZM11.3513 11.3738L6.9209 22.5835L8.54688 23.8338L11.5542 20.4251L11.7951 20.1521L12.1584 20.1295C12.3049 20.1203 12.4494 20.116 12.592 20.1168C13.5893 20.1232 14.4809 20.382 15.1496 20.9723C15.6449 21.409 15.9742 21.9904 16.1652 22.6637L16.3879 22.6498C17.5593 22.5766 18.6146 22.8183 19.3791 23.4926C20.1435 24.1671 20.5148 25.1843 20.5881 26.3559L20.5949 26.4613C21.2238 26.5801 21.7868 26.8277 22.2446 27.2316C23.0091 27.9061 23.3804 28.923 23.4536 30.0946L23.4729 30.3993C23.5353 30.4191 23.5971 30.4405 23.6584 30.4636L23.8569 30.185L24.3911 29.4352L24.6658 29.0494L25.3816 29.5595L31.1852 33.6938C31.8164 33.5382 32.1927 33.2959 32.402 33.0019C32.6116 32.7077 32.7177 32.2724 32.6582 31.6242L25.6994 26.6408L24.9848 26.1291L25.4916 25.4215L26.143 24.5069L26.8588 25.017L34.704 30.6055C35.3353 30.4499 35.7118 30.2076 35.9211 29.9136C36.1305 29.6196 36.2365 29.1854 36.1774 28.5384L27.1542 22.137L26.4374 21.6282L27.4544 20.1946L28.1715 20.7032L37.1963 27.1061C37.8281 26.9504 38.2048 26.7081 38.4144 26.4139C38.6241 26.1194 38.7301 25.6838 38.6702 25.0345L27.8851 17.2503C26.4539 18.0987 24.6231 18.7784 22.6549 18.7538C20.3515 18.725 17.8876 17.6243 16.0751 14.8427C16.0034 14.7327 15.9573 14.608 15.9401 14.4778C15.9229 14.3477 15.9351 14.2153 15.9758 14.0905C16.0165 13.9656 16.0846 13.8515 16.1752 13.7564C16.2658 13.6614 16.3765 13.5879 16.4992 13.5412C17.7701 13.0583 19.0542 12.548 20.3413 12.0418L11.3515 11.3744L11.3513 11.3738ZM12.6112 21.8836L7.96631 27.1482C8.05684 27.807 8.26318 28.2168 8.54121 28.4621C8.81924 28.7074 9.25166 28.861 9.9166 28.8687L14.5614 23.6043C14.4709 22.9454 14.2646 22.5354 13.9865 22.2901C13.7085 22.0448 13.2762 21.8913 12.6111 21.8837L12.6112 21.8836ZM16.8405 24.4041L11.5951 30.3494C11.6855 31.0083 11.892 31.4183 12.1699 31.6636C12.4482 31.9087 12.8804 32.0623 13.5454 32.0698L18.7908 26.1247C18.7004 25.4657 18.4939 25.056 18.2159 24.8105C17.938 24.5652 17.5057 24.4116 16.8406 24.4039L16.8405 24.4041ZM19.7058 28.143L15.0612 33.4076C15.1518 34.0664 15.3581 34.4763 15.6361 34.7217C15.9143 34.967 16.3466 35.1204 17.0115 35.1281L21.6562 29.8641C21.5657 29.2049 21.3594 28.795 21.0813 28.5496C20.8033 28.3043 20.371 28.1509 19.706 28.1432L19.7058 28.143ZM22.1181 31.9649L18.3296 36.2892C18.4199 36.9493 18.6263 37.3597 18.9046 37.6052C19.1824 37.8503 19.6143 38.0038 20.2783 38.0117L24.067 33.6875C23.9766 33.0275 23.7701 32.6172 23.4918 32.3715C23.2141 32.1264 22.7822 31.973 22.1182 31.965L22.1181 31.9649ZM25.5694 32.4327C25.7349 32.8839 25.8305 33.3839 25.8638 33.9163L25.8864 34.278L25.0781 35.2007L27.6879 37.0598C28.3191 36.9041 28.6953 36.6618 28.9047 36.3678C29.1142 36.0738 29.2204 35.6389 29.1613 34.9915L25.5695 32.4329L25.5694 32.4327Z" fill="#003F66"/>
</svg>
