<svg width="18" height="12" viewBox="0 0 18 12" fill="none" xmlns="http://www.w3.org/2000/svg">
<path d="M17 -3.90212e-06C17.2833 -3.87735e-06 17.521 0.0959959 17.713 0.287996C17.905 0.479997 18.0007 0.71733 18 0.999996C18 1.28333 17.904 1.521 17.712 1.713C17.52 1.905 17.2827 2.00066 17 2L6 2C5.71666 2 5.479 1.904 5.287 1.71199C5.095 1.51999 4.99933 1.28266 5 0.999995C5 0.716661 5.096 0.478996 5.288 0.286996C5.48 0.0949954 5.71733 -0.000671507 6 -4.86377e-06L17 -3.90212e-06ZM17 5C17.2833 5 17.521 5.096 17.713 5.288C17.905 5.48 18.0007 5.71733 18 6C18 6.28333 17.904 6.521 17.712 6.713C17.52 6.905 17.2827 7.00066 17 7L9 7C8.71666 7 8.479 6.904 8.287 6.712C8.095 6.52 7.99933 6.28266 8 6C8 5.71666 8.096 5.479 8.288 5.287C8.48 5.095 8.71733 4.99933 9 5L17 5ZM17 10C17.2833 10 17.521 10.096 17.713 10.288C17.905 10.48 18.0007 10.7173 18 11C18 11.2833 17.904 11.521 17.712 11.713C17.52 11.905 17.2827 12.0007 17 12L6 12C5.71666 12 5.479 11.904 5.287 11.712C5.095 11.52 4.99933 11.2827 5 11C5 10.7167 5.096 10.479 5.288 10.287C5.48 10.095 5.71733 9.99933 6 10L17 10ZM3.6 6L0.699998 3.1C0.516665 2.91666 0.424996 2.68333 0.424996 2.39999C0.424996 2.11666 0.516665 1.88333 0.699998 1.7C0.88333 1.51666 1.11666 1.42499 1.4 1.42499C1.68333 1.42499 1.91667 1.51666 2.1 1.7L5.7 5.3C5.9 5.5 6 5.73333 6 6C6 6.26666 5.9 6.5 5.7 6.7L2.1 10.3C1.91666 10.4833 1.68333 10.575 1.4 10.575C1.11666 10.575 0.88333 10.4833 0.699997 10.3C0.516665 10.1167 0.424996 9.88333 0.424996 9.6C0.424996 9.31666 0.516665 9.08333 0.699997 8.89999L3.6 6Z" fill="#001F33"/>
</svg>
