<svg width="18" height="12" viewBox="0 0 18 12" fill="none" xmlns="http://www.w3.org/2000/svg">
<path d="M1 12C0.71667 12 0.479003 11.904 0.287003 11.712C0.0950034 11.52 -0.000663206 11.2827 3.46021e-06 11C3.46021e-06 10.7167 0.0960036 10.479 0.288004 10.287C0.480004 10.095 0.717337 9.99934 1 10H12C12.2833 10 12.521 10.096 12.713 10.288C12.905 10.48 13.0007 10.7173 13 11C13 11.2833 12.904 11.521 12.712 11.713C12.52 11.905 12.2827 12.0007 12 12H1ZM1 7C0.71667 7 0.479003 6.904 0.287003 6.712C0.0950034 6.52 -0.000663206 6.28267 3.46021e-06 6C3.46021e-06 5.71667 0.0960036 5.479 0.288004 5.287C0.480004 5.095 0.717337 4.99934 1 5H9C9.28334 5 9.521 5.096 9.713 5.288C9.905 5.48 10.0007 5.71734 10 6C10 6.28334 9.904 6.521 9.712 6.713C9.52 6.905 9.28267 7.00067 9 7H1ZM1 2C0.71667 2 0.479003 1.904 0.287003 1.712C0.0950034 1.52 -0.000663206 1.28267 3.46021e-06 1C3.46021e-06 0.71667 0.0960036 0.479004 0.288004 0.287004C0.480004 0.0950036 0.717337 -0.000663206 1 3.4602e-06H12C12.2833 3.4602e-06 12.521 0.0960036 12.713 0.288004C12.905 0.480004 13.0007 0.717337 13 1C13 1.28334 12.904 1.521 12.712 1.713C12.52 1.905 12.2827 2.00067 12 2H1ZM14.4 6L17.3 8.9C17.4833 9.08334 17.575 9.31667 17.575 9.6C17.575 9.88334 17.4833 10.1167 17.3 10.3C17.1167 10.4833 16.8833 10.575 16.6 10.575C16.3167 10.575 16.0833 10.4833 15.9 10.3L12.3 6.7C12.1 6.5 12 6.26667 12 6C12 5.73334 12.1 5.5 12.3 5.3L15.9 1.7C16.0833 1.51667 16.3167 1.425 16.6 1.425C16.8833 1.425 17.1167 1.51667 17.3 1.7C17.4833 1.88334 17.575 2.11667 17.575 2.4C17.575 2.68334 17.4833 2.91667 17.3 3.1L14.4 6Z" fill="white"/>
</svg>
