<svg width="88" height="22" viewBox="0 0 88 22" fill="none" xmlns="http://www.w3.org/2000/svg">
<path fill-rule="evenodd" clip-rule="evenodd" d="M5.43076 20.8753L5.79645 18.5431L4.98182 18.524H1.0918L3.79522 1.31321C3.80365 1.26109 3.83087 1.21271 3.87063 1.1783C3.91059 1.14388 3.96152 1.125 4.0148 1.125H10.574C12.7517 1.125 14.2544 1.57989 15.0389 2.47786C15.4067 2.89912 15.641 3.33946 15.7544 3.82384C15.8733 4.33222 15.8752 4.93953 15.7593 5.68037L15.7509 5.73425V6.209L16.1187 6.41826C16.4284 6.58326 16.6746 6.77206 16.8634 6.98819C17.178 7.34849 17.3815 7.80632 17.4675 8.34892C17.5564 8.90706 17.527 9.5714 17.3815 10.3234C17.2136 11.1884 16.9424 11.9418 16.5759 12.5582C16.239 13.1261 15.8096 13.5973 15.2998 13.9624C14.813 14.3093 14.2348 14.5726 13.581 14.7411C12.9473 14.9067 12.225 14.9903 11.4327 14.9903H10.9222C10.5573 14.9903 10.2028 15.1223 9.92445 15.3589C9.64534 15.6004 9.46082 15.9304 9.40422 16.2913L9.36563 16.5013L8.71945 20.6122L8.69026 20.7631C8.68243 20.8108 8.66911 20.8346 8.64952 20.8508C8.63209 20.8655 8.60702 20.8753 8.58253 20.8753H5.43076Z" fill="#28356A"/>
<path fill-rule="evenodd" clip-rule="evenodd" d="M16.4673 5.78906C16.4479 5.91473 16.4253 6.04315 16.4003 6.17512C15.5353 10.6343 12.5759 12.1748 8.79632 12.1748H6.87187C6.40962 12.1748 6.02003 12.5117 5.94814 12.9695L4.68379 21.022C4.63697 21.3227 4.86771 21.5935 5.16974 21.5935H8.58301C8.9871 21.5935 9.33046 21.2987 9.39412 20.8985L9.42761 20.7244L10.0703 16.6297L10.1116 16.4051C10.1745 16.0035 10.5186 15.7085 10.9227 15.7085H11.4331C14.7401 15.7085 17.3289 14.3605 18.0856 10.4595C18.4015 8.82991 18.2379 7.46918 17.4016 6.5122C17.1485 6.22369 16.8345 5.98415 16.4673 5.78906Z" fill="#298FC2"/>
<path fill-rule="evenodd" clip-rule="evenodd" d="M15.5636 5.42695C15.4314 5.38821 15.2951 5.3532 15.1552 5.32154C15.0146 5.29066 14.8706 5.26332 14.7223 5.23933C14.2035 5.15516 13.6348 5.11523 13.0259 5.11523H7.88483C7.7581 5.11523 7.63783 5.14395 7.5303 5.19587C7.2931 5.31033 7.11701 5.53571 7.07431 5.81163L5.98056 12.7669L5.94922 12.9697C6.0211 12.5118 6.41069 12.1749 6.87295 12.1749H8.79739C12.5769 12.1749 15.5364 10.6337 16.4013 6.17526C16.4272 6.0433 16.4489 5.91488 16.4683 5.78921C16.2495 5.67258 16.0125 5.57288 15.7573 5.48792C15.6942 5.46687 15.6292 5.44662 15.5636 5.42695Z" fill="#22284F"/>
<path fill-rule="evenodd" clip-rule="evenodd" d="M7.07247 5.8118C7.11517 5.53588 7.29126 5.3105 7.52846 5.19683C7.63678 5.14471 7.75626 5.116 7.88299 5.116H13.024C13.633 5.116 14.2016 5.15612 14.7205 5.24029C14.8688 5.26409 15.0127 5.29162 15.1534 5.3225C15.2932 5.35396 15.4296 5.38917 15.5618 5.42771C15.6274 5.44738 15.6924 5.46783 15.7561 5.48809C16.0113 5.57305 16.2485 5.67355 16.4673 5.78938C16.7247 4.14152 16.4651 3.01954 15.5778 2.00357C14.5994 0.884934 12.8339 0.40625 10.5745 0.40625H4.0151C3.55363 0.40625 3.15992 0.743138 3.08863 1.20176L0.356601 18.5896C0.302736 18.9335 0.566968 19.2439 0.912486 19.2439H4.96195L7.07247 5.8118Z" fill="#28356A"/>
<path fill-rule="evenodd" clip-rule="evenodd" d="M33.6147 2.72363H28.8323C28.505 2.72363 28.2267 2.96238 28.1756 3.28688L26.2413 15.5997C26.2029 15.8428 26.3904 16.0617 26.6358 16.0617H28.9189C29.2462 16.0617 29.5245 15.8231 29.5757 15.498L30.0973 12.177C30.1476 11.8519 30.4265 11.6131 30.7532 11.6131H32.2671C35.4174 11.6131 37.2354 10.0825 37.7104 7.04949C37.9243 5.72239 37.7194 4.67987 37.1005 3.94965C36.4208 3.14784 35.2152 2.72363 33.6147 2.72363ZM34.1676 7.2212C33.9061 8.94419 32.5949 8.94419 31.3273 8.94419H30.6055L31.1118 5.72635C31.142 5.53184 31.3096 5.38867 31.5055 5.38867H31.8363C32.6999 5.38867 33.5146 5.38867 33.9355 5.88289C34.1866 6.17769 34.2634 6.61586 34.1676 7.2212Z" fill="#28356A"/>
<path fill-rule="evenodd" clip-rule="evenodd" d="M48.033 7.0718H45.7429C45.5478 7.0718 45.3792 7.21497 45.3492 7.40948L45.2477 8.05257L45.0877 7.81952C44.5919 7.09697 43.4862 6.85547 42.3829 6.85547C39.852 6.85547 37.6906 8.78004 37.2697 11.4797C37.0509 12.8262 37.3619 14.114 38.1229 15.012C38.8208 15.8376 39.8193 16.1818 41.0073 16.1818C43.0465 16.1818 44.1771 14.8653 44.1771 14.8653L44.075 15.5042C44.0366 15.7485 44.2241 15.9676 44.4681 15.9676H46.5309C46.859 15.9676 47.1359 15.7288 47.1876 15.4037L48.4254 7.53377C48.4645 7.29148 48.2777 7.0718 48.033 7.0718ZM44.8403 11.5471C44.6193 12.8607 43.581 13.7425 42.2565 13.7425C41.5916 13.7425 41.0602 13.5284 40.7187 13.1226C40.3803 12.7197 40.2518 12.146 40.3593 11.507C40.5658 10.2047 41.6215 9.29395 42.9258 9.29395C43.5761 9.29395 44.1048 9.51106 44.4531 9.92013C44.8019 10.3337 44.9404 10.9109 44.8403 11.5471Z" fill="#28356A"/>
<path fill-rule="evenodd" clip-rule="evenodd" d="M60.053 7.26855H57.7515C57.5319 7.26855 57.3257 7.3781 57.2013 7.56139L54.0272 12.2556L52.6817 7.74449C52.5971 7.46227 52.3378 7.26855 52.044 7.26855H49.7826C49.5076 7.26855 49.3169 7.53818 49.4042 7.79798L51.9392 15.2669L49.556 18.6449C49.3686 18.911 49.5574 19.2768 49.8812 19.2768H52.1797C52.3979 19.2768 52.602 19.17 52.7258 18.9904L60.3801 7.8969C60.5634 7.6316 60.3752 7.26855 60.053 7.26855Z" fill="#28356A"/>
<path fill-rule="evenodd" clip-rule="evenodd" d="M67.7259 2.72363H62.9429C62.6164 2.72363 62.338 2.96238 62.2869 3.28688L60.3527 15.5997C60.3143 15.8428 60.5017 16.0617 60.7458 16.0617H63.2002C63.428 16.0617 63.6231 15.8947 63.6588 15.6672L64.2078 12.177C64.2582 11.8519 64.5373 11.6131 64.8638 11.6131H66.3771C69.5279 11.6131 71.3454 10.0825 71.821 7.04949C72.0356 5.72239 71.8294 4.67987 71.2104 3.94965C70.5314 3.14784 69.3265 2.72363 67.7259 2.72363ZM68.2781 7.2212C68.0172 8.94419 66.7061 8.94419 65.4376 8.94419H64.7168L65.2237 5.72635C65.2537 5.53184 65.4202 5.38867 65.6166 5.38867H65.9475C66.8103 5.38867 67.6257 5.38867 68.0466 5.88289C68.2977 6.17769 68.3739 6.61586 68.2781 7.2212Z" fill="#298FC2"/>
<path fill-rule="evenodd" clip-rule="evenodd" d="M82.1393 7.0718H79.8506C79.6541 7.0718 79.487 7.21497 79.4576 7.40948L79.3562 8.05257L79.1954 7.81952C78.6996 7.09697 77.5947 6.85547 76.4911 6.85547C73.9605 6.85547 71.7998 8.78004 71.3789 11.4797C71.1607 12.8262 71.4704 14.114 72.2311 15.012C72.9306 15.8376 73.9276 16.1818 75.1157 16.1818C77.1548 16.1818 78.2855 14.8653 78.2855 14.8653L78.1835 15.5042C78.1451 15.7485 78.3323 15.9676 78.578 15.9676H80.6401C80.9666 15.9676 81.245 15.7288 81.2961 15.4037L82.5344 7.53377C82.5722 7.29148 82.3847 7.0718 82.1393 7.0718ZM78.9473 11.5471C78.7277 12.8607 77.6879 13.7425 76.3634 13.7425C75.6998 13.7425 75.167 13.5284 74.8256 13.1226C74.4873 12.7197 74.36 12.146 74.4662 11.507C74.674 10.2047 75.7284 9.29395 77.0327 9.29395C77.683 9.29395 78.2116 9.51106 78.5599 9.92013C78.9101 10.3337 79.0486 10.9109 78.9473 11.5471Z" fill="#298FC2"/>
<path fill-rule="evenodd" clip-rule="evenodd" d="M84.6495 3.06209L82.6866 15.6003C82.6483 15.8434 82.8355 16.0623 83.0796 16.0623H85.053C85.3811 16.0623 85.6592 15.8237 85.7095 15.4986L87.6452 3.18639C87.6837 2.94331 87.4963 2.72363 87.2522 2.72363H85.0426C84.8475 2.72422 84.6796 2.86759 84.6495 3.06209Z" fill="#298FC2"/>
</svg>
