<svg width="24" height="16" viewBox="0 0 24 16" fill="none" xmlns="http://www.w3.org/2000/svg">
<path fill-rule="evenodd" clip-rule="evenodd" d="M21.2086 0.476364C22.1915 0.741818 22.9641 1.51636 23.2252 2.49818C23.7004 4.28 23.7004 8 23.7004 8C23.7004 8 23.7004 11.72 23.2252 13.5018C22.9605 14.4873 22.1879 15.2618 21.2086 15.5236C19.4313 16 12.3004 16 12.3004 16C12.3004 16 5.17312 16 3.39221 15.5236C2.40927 15.2582 1.63669 14.4836 1.37554 13.5018C0.900391 11.72 0.900391 8 0.900391 8C0.900391 8 0.900391 4.28 1.37554 2.49818C1.64032 1.51273 2.41289 0.738182 3.39221 0.476364C5.17312 0 12.3004 0 12.3004 0C12.3004 0 19.4313 0 21.2086 0.476364ZM15.9456 8L10.0226 11.4291V4.57091L15.9456 8Z" fill="#FF3000"/>
</svg>
