<svg width="23" height="23" viewBox="0 0 23 23" fill="none" xmlns="http://www.w3.org/2000/svg">
<path d="M5.30893 14.0078C5.30893 15.2773 4.28287 16.3034 3.01333 16.3034C1.74379 16.3034 0.71772 15.2773 0.71772 14.0078C0.71772 12.7382 1.74379 11.7122 3.01333 11.7122H5.30893V14.0078ZM6.45673 14.0078C6.45673 12.7382 7.4828 11.7122 8.75234 11.7122C10.0219 11.7122 11.0479 12.7382 11.0479 14.0078V19.7468C11.0479 21.0163 10.0219 22.0424 8.75234 22.0424C7.4828 22.0424 6.45673 21.0163 6.45673 19.7468V14.0078Z" fill="#E01E5A"/>
<path d="M8.75123 4.79043C7.48169 4.79043 6.45562 3.76436 6.45562 2.49482C6.45562 1.22528 7.48169 0.199219 8.75123 0.199219C10.0208 0.199219 11.0468 1.22528 11.0468 2.49482V4.79043H8.75123ZM8.75123 5.95562C10.0208 5.95562 11.0468 6.98169 11.0468 8.25123C11.0468 9.52077 10.0208 10.5468 8.75123 10.5468H2.99482C1.72528 10.5468 0.699219 9.52077 0.699219 8.25123C0.699219 6.98169 1.72528 5.95562 2.99482 5.95562H8.75123Z" fill="#36C5F0"/>
<path d="M17.9519 8.25123C17.9519 6.98169 18.978 5.95562 20.2475 5.95562C21.517 5.95562 22.5431 6.98169 22.5431 8.25123C22.5431 9.52077 21.517 10.5468 20.2475 10.5468H17.9519V8.25123ZM16.8041 8.25123C16.8041 9.52077 15.778 10.5468 14.5085 10.5468C13.2389 10.5468 12.2129 9.52077 12.2129 8.25123V2.49482C12.2129 1.22528 13.2389 0.199219 14.5085 0.199219C15.778 0.199219 16.8041 1.22528 16.8041 2.49482V8.25123Z" fill="#2EB67D"/>
<path d="M14.5085 17.4512C15.778 17.4512 16.8041 18.4772 16.8041 19.7468C16.8041 21.0163 15.778 22.0424 14.5085 22.0424C13.2389 22.0424 12.2129 21.0163 12.2129 19.7468V17.4512H14.5085ZM14.5085 16.3034C13.2389 16.3034 12.2129 15.2773 12.2129 14.0078C12.2129 12.7382 13.2389 11.7122 14.5085 11.7122H20.2649C21.5344 11.7122 22.5605 12.7382 22.5605 14.0078C22.5605 15.2773 21.5344 16.3034 20.2649 16.3034H14.5085Z" fill="#ECB22E"/>
</svg>
