<svg width="17" height="20" viewBox="0 0 17 20" fill="none" xmlns="http://www.w3.org/2000/svg">
<path fill-rule="evenodd" clip-rule="evenodd" d="M12.5149 7.42257C13.7416 8.29459 15.2106 8.76049 16.7156 8.75484V5.77215C16.4197 5.77296 16.1246 5.74129 15.8357 5.67769V8.05391C14.3273 8.05658 12.8562 7.58534 11.6301 6.70672V12.8411C11.6264 13.8477 11.3503 14.8346 10.8312 15.697C10.3121 16.5594 9.56926 17.2653 8.68149 17.7398C7.79372 18.2142 6.79409 18.4396 5.78861 18.392C4.78313 18.3444 3.80927 18.0255 2.97031 17.4693C3.74633 18.2544 4.73789 18.7917 5.81943 19.0129C6.90097 19.2342 8.02385 19.1295 9.04587 18.7122C10.0679 18.2949 10.9431 17.5837 11.5606 16.6686C12.1782 15.7536 12.5103 14.6758 12.5149 13.5719V7.42257ZM13.6036 4.38022C12.9798 3.7041 12.5971 2.84071 12.5149 1.92447V1.53672H11.6798C11.783 2.11913 12.0077 2.67329 12.3391 3.16319C12.6706 3.65309 13.1014 4.06775 13.6036 4.38022ZM4.90409 15.108C4.61463 14.7295 4.43724 14.2773 4.39211 13.8029C4.34698 13.3285 4.43593 12.851 4.64883 12.4247C4.86172 11.9984 5.19002 11.6404 5.59635 11.3915C6.00269 11.1426 6.47074 11.0127 6.94724 11.0167C7.21032 11.0166 7.47185 11.0569 7.72274 11.136V8.05391C7.42946 8.01507 7.13366 7.99845 6.83787 8.0042V10.4003C6.22698 10.2072 5.56578 10.2511 4.98578 10.5233C4.40579 10.7955 3.9495 11.276 3.70767 11.8693C3.46584 12.4626 3.45619 13.1252 3.68064 13.7253C3.90509 14.3254 4.34719 14.819 4.91901 15.108H4.90409Z" fill="#EE1D52"/>
<path fill-rule="evenodd" clip-rule="evenodd" d="M11.6296 6.68684C12.8557 7.56545 14.3268 8.0367 15.8352 8.03402V5.65781C14.9758 5.4761 14.1951 5.02924 13.6032 4.38022C13.101 4.06775 12.6701 3.65309 12.3387 3.16319C12.0072 2.67329 11.7826 2.11913 11.6794 1.53672H9.4821V13.5719C9.48006 14.1046 9.31124 14.6233 8.99934 15.0552C8.68745 15.4871 8.24814 15.8104 7.74308 15.9799C7.23803 16.1493 6.69259 16.1563 6.18334 16C5.67409 15.8436 5.22659 15.5317 4.90366 15.108C4.3919 14.8498 3.98205 14.4267 3.74025 13.9069C3.49845 13.3872 3.4388 12.8012 3.57093 12.2434C3.70305 11.6856 4.01924 11.1886 4.46848 10.8326C4.91772 10.4765 5.47381 10.2822 6.04703 10.281C6.31004 10.2818 6.57143 10.322 6.82253 10.4003V8.0042C5.73762 8.03024 4.68392 8.37249 3.79078 8.98894C2.89764 9.60538 2.20392 10.4692 1.79479 11.4743C1.38566 12.4795 1.27892 13.5822 1.48766 14.6472C1.69641 15.7121 2.21156 16.693 2.96988 17.4693C3.80902 18.0295 4.7844 18.3516 5.79214 18.4014C6.79988 18.4511 7.80223 18.2265 8.69243 17.7515C9.58262 17.2766 10.3273 16.5691 10.8472 15.7044C11.3671 14.8396 11.6426 13.8501 11.6446 12.8411L11.6296 6.68684Z" fill="#E3E3E3"/>
<path fill-rule="evenodd" clip-rule="evenodd" d="M15.8352 5.65781L15.8355 5.01632C15.0463 5.01968 14.2724 4.79924 13.6036 4.38022C14.1941 5.03111 14.975 5.47834 15.8352 5.65781ZM11.6798 1.53672C11.6798 1.42238 11.6448 1.30287 11.6299 1.18853V0.800781H8.59751V12.8409C8.59488 13.5151 8.32488 14.1607 7.84677 14.636C7.36865 15.1113 6.72149 15.3775 6.04731 15.3762C5.65034 15.3782 5.25869 15.2864 4.90409 15.108C5.22702 15.5317 5.67409 15.8436 6.18334 16C6.69259 16.1563 7.23803 16.1493 7.74308 15.9799C8.24814 15.8104 8.68745 15.4871 8.99934 15.0552C9.31124 14.6233 9.48006 14.1046 9.4821 13.5719V1.53672H11.6798ZM6.82281 7.99902V7.31797C5.57499 7.14846 4.30655 7.40657 3.22421 8.05025C2.14187 8.69393 1.30945 9.68521 0.862617 10.8625C0.415783 12.0399 0.380882 13.3339 0.763601 14.5336C1.14632 15.7333 1.92424 16.7682 2.97031 17.4693C2.21773 16.6912 1.70791 15.7105 1.50343 14.6475C1.29894 13.5845 1.40849 12.4849 1.81869 11.4831C2.2289 10.4814 2.92199 9.62075 3.8133 9.00643C4.70461 8.39211 5.75555 8.05069 6.83772 8.02387L6.82281 7.99902Z" fill="#69C9D0"/>
</svg>
