<svg width="24" height="24" viewBox="0 0 24 24" fill="none" xmlns="http://www.w3.org/2000/svg">
<path d="M8.20789 14.0958C8.10225 13.9905 8.01877 13.8652 7.96141 13.7275C7.90433 13.5895 7.87508 13.4418 7.87508 13.2928C7.87508 12.8333 8.15195 12.4193 8.57619 12.2432C9.00071 12.0675 9.48912 12.1649 9.81397 12.4897C10.1388 12.8146 10.2362 13.303 10.0605 13.7275C9.88439 14.1518 9.47038 14.4286 9.01093 14.4286C8.86176 14.4286 8.71404 14.3993 8.57619 14.3423C8.43846 14.2849 8.31324 14.2014 8.20789 14.0958Z" fill="#FF4500"/>
<path d="M14.5595 16.2386C14.5584 16.3198 14.5252 16.3973 14.467 16.4541L14.4743 16.4163C14.2747 16.5668 14.0626 16.6997 13.8403 16.8139C13.3946 17.0423 12.913 17.1924 12.4165 17.2577C12.1686 17.2901 11.9184 17.3012 11.6688 17.2909C11.4192 17.3012 11.169 17.2901 10.9211 17.2577C10.6732 17.2251 10.4287 17.1714 10.1902 17.097C9.95169 17.0226 9.7197 16.928 9.49736 16.8139C9.27501 16.6997 9.0629 16.5668 8.86327 16.4163C8.815 16.3576 8.79029 16.2829 8.79398 16.2068C8.79768 16.1307 8.82976 16.0588 8.88343 16.0049C8.93738 15.9512 9.00923 15.9191 9.08533 15.9154C9.16143 15.9117 9.23611 15.9364 9.29489 15.9847C9.46413 16.1088 9.6436 16.2184 9.83129 16.3121C10.019 16.4058 10.2141 16.4836 10.4151 16.5444C10.6158 16.6055 10.8214 16.6492 11.0296 16.675C11.2378 16.7012 11.4479 16.7097 11.6574 16.7003C11.8673 16.7117 12.0777 16.7054 12.2867 16.6813C12.4954 16.6571 12.7019 16.6154 12.9035 16.5566C13.1053 16.4977 13.3017 16.4218 13.4907 16.3297C13.6797 16.2378 13.8606 16.1299 14.0314 16.0074C14.097 15.9583 14.1753 15.9268 14.2568 15.9279C14.338 15.9291 14.4156 15.9623 14.4724 16.0205C14.5291 16.0787 14.5607 16.1571 14.5595 16.2386Z" fill="#FF4500"/>
<path d="M14.7075 14.4323C14.5652 14.4914 14.4124 14.5212 14.2585 14.5195L14.2699 14.474C13.8104 14.474 13.3964 14.1972 13.2204 13.7729C13.0446 13.3484 13.142 12.86 13.4668 12.5352C13.7917 12.2103 14.2801 12.1129 14.7046 12.2887C15.1289 12.4647 15.4057 12.8788 15.4057 13.3382C15.412 13.4921 15.3868 13.6456 15.3316 13.7894C15.2765 13.9334 15.193 14.0646 15.0857 14.175C14.9784 14.2855 14.8497 14.373 14.7075 14.4323Z" fill="#FF4500"/>
<path fill-rule="evenodd" clip-rule="evenodd" d="M23.0157 12.1573C23.0157 18.4304 17.9304 23.5157 11.6573 23.5157C5.38418 23.5157 0.298828 18.4304 0.298828 12.1573C0.298828 5.88418 5.38418 0.798828 11.6573 0.798828C17.9304 0.798828 23.0157 5.88418 23.0157 12.1573ZM19.1756 12.6181C19.2165 12.4679 19.2358 12.3125 19.2335 12.1569C19.2219 11.8371 19.1179 11.5276 18.9342 11.2656C18.7506 11.0036 18.4951 10.8003 18.1985 10.6803C17.9019 10.5603 17.577 10.5286 17.2628 10.5892C16.9487 10.6495 16.6587 10.7995 16.428 11.0211C16.1071 10.8029 15.7708 10.6082 15.4219 10.4384C14.7233 10.098 13.9792 9.86024 13.2127 9.73246C12.8299 9.66857 12.4429 9.63223 12.055 9.62399L12.7933 6.08016L15.224 6.59129C15.2836 7.14615 15.7377 7.5755 16.2951 7.60418C16.8522 7.63286 17.348 7.25235 17.4642 6.70657C17.5806 6.1608 17.283 5.61134 16.7625 5.41029C16.242 5.20925 15.6525 5.41597 15.3717 5.89842L12.5888 5.34186C12.5434 5.33192 12.4963 5.33107 12.4506 5.3393C12.4046 5.34782 12.3608 5.36514 12.3216 5.39041C12.2827 5.41569 12.2489 5.44863 12.2228 5.48696C12.1964 5.52558 12.1779 5.56874 12.1686 5.61446L11.3281 9.55584C10.9353 9.5618 10.5435 9.59616 10.1559 9.65892C9.76825 9.72167 9.38547 9.81226 9.01093 9.93038C8.63638 10.0485 8.27093 10.1939 7.9174 10.3648C7.56395 10.536 7.22335 10.7326 6.89826 10.9529C6.72314 10.7882 6.5143 10.6635 6.2862 10.5875C6.0581 10.5115 5.8162 10.486 5.57727 10.5128C5.33837 10.5395 5.10813 10.6178 4.90253 10.7423C4.69693 10.8669 4.52089 11.0347 4.38662 11.2341C4.25224 11.4335 4.16282 11.6597 4.12458 11.8971C4.08633 12.1346 4.10017 12.3775 4.16513 12.609C4.2302 12.8404 4.34478 13.055 4.50094 13.2377C4.6571 13.4205 4.85111 13.5672 5.06955 13.6676C5.06642 13.7091 5.06387 13.7508 5.06245 13.7925C5.05903 13.8758 5.05903 13.9592 5.06245 14.0424C5.06387 14.0842 5.06642 14.1259 5.06955 14.1674C5.06955 16.7117 8.0341 18.7789 11.6915 18.7789C15.3489 18.7789 18.3135 16.7117 18.3135 14.1674C18.3166 14.1259 18.3192 14.0842 18.3206 14.0424C18.324 13.9592 18.324 13.8758 18.3206 13.7925C18.3192 13.7508 18.3166 13.7091 18.3135 13.6676C18.4529 13.5983 18.5818 13.5097 18.6966 13.4044C18.8113 13.299 18.9107 13.178 18.9916 13.0452C19.0728 12.9123 19.1347 12.7683 19.1756 12.6181Z" fill="#FF4500"/>
</svg>
