<svg width="17" height="18" viewBox="0 0 17 18" fill="none" xmlns="http://www.w3.org/2000/svg">
<path d="M4.28181 1.22734L3.48564 2.02352L2.09233 10.9805L6.27225 13.17L6.86938 13.9661L10.8502 12.5728L15.2292 9.18908L15.4282 6.00439L15.2292 1.42639L14.6321 1.22734H4.28181Z" fill="white"/>
<path d="M3.8002 0.599609L0.5 3.66149V14.6843H4.46024V17.7461L7.76045 14.6843H10.4006L16.341 9.17287V0.599609H3.8002ZM15.0209 8.56049L12.3807 11.01H9.74057L7.43043 13.1533V11.01H4.46024V1.82436H15.0209V8.56049Z" fill="black"/>
<path d="M13.0412 3.96768H11.7211V7.64193H13.0412V3.96768Z" fill="black"/>
<path d="M9.41172 3.96768H8.09164V7.64193H9.41172V3.96768Z" fill="black"/>
</svg>
