<svg width="250" height="209" viewBox="0 0 250 209" fill="none" xmlns="http://www.w3.org/2000/svg">
<path d="M52.4987 196.86C91.9236 217.168 167.121 205.921 210.71 196.773C225.596 195.245 248.292 181.714 249.456 141.965C250.691 99.8088 231.974 61.5057 188.109 17.6569C176.808 6.36041 165.507 -8.17494 89.63 6.35628C46.041 17.6569 11.1728 45.2523 2.45214 87.0689C-9.02374 142.097 21.825 181.059 52.4987 196.86Z" fill="#E5F5FF"/>
<path d="M175.281 147.613C175.281 156.012 168.484 162.848 160.047 162.848H87.3906C78.9922 162.848 72.1562 156.051 72.1562 147.613V84.7227C72.1562 76.3242 78.9531 69.4883 87.3906 69.4883H160.047C168.445 69.4883 175.281 76.2852 175.281 84.7227V147.613Z" fill="white"/>
<path d="M154.969 79.6445H92.4688V90.1914H154.969V79.6445Z" fill="#6E6E6E"/>
<path d="M102.703 87.457H145.945C149.734 82.7695 152 76.5977 152 69.9961C151.961 54.4102 139.344 41.7539 123.719 41.7539C108.133 41.7539 95.4766 54.4102 95.4766 69.9961C95.4766 76.6367 97.7813 82.7305 101.57 87.5352C101.961 87.457 102.312 87.457 102.703 87.457Z" fill="#E1902B"/>
<path d="M131.531 69.0586C130.047 67.7695 128.211 67.1445 126.023 67.1445H125.672V62.457H132.312V58.5508H125.672V53.8633H121.766V58.5508H120.75C118.758 58.5508 117.117 59.0977 115.75 60.1914C114.305 61.3633 113.602 62.9258 113.602 64.8398C113.602 66.793 114.305 68.2773 115.75 69.4492C117.078 70.543 118.758 71.0117 120.75 71.0117H121.766V77.2617H113.953V81.5586H121.766V85.8555H125.672V81.5586H126.023C128.25 81.5586 130.086 80.8555 131.531 79.6445C133.055 78.3164 133.836 76.5195 133.836 74.3711C133.836 72.2227 133.055 70.4258 131.531 69.0586ZM120.75 67.1445C120.008 67.1445 119.344 66.9883 118.797 66.5586C118.25 66.168 117.977 65.6211 117.977 64.8789C117.977 64.1758 118.25 63.5508 118.797 63.1211C119.344 62.6914 119.969 62.457 120.75 62.457H121.766V67.1445H120.75ZM128.875 76.6367C128.055 77.1445 127.117 77.3008 126.023 77.3008H125.672V71.0508H126.023C127.117 71.0508 128.055 71.3633 128.836 71.832C129.773 72.3789 130.242 73.1602 130.242 74.2148C130.242 75.2305 129.773 76.0117 128.875 76.6367Z" fill="#FFD66C"/>
<path d="M107.586 87.457H112.391C106.687 83.5508 102.898 77.3008 102.898 69.9961C102.898 58.5117 112.234 49.1758 123.719 49.1758C135.203 49.1758 144.539 58.5117 144.539 69.9961C144.539 77.3008 140.75 83.5508 135.086 87.457H139.891C144.578 83.1602 147.508 76.8711 147.508 69.9961C147.508 56.8711 136.844 46.207 123.719 46.207C110.594 46.207 99.9297 56.8711 99.9297 69.9961C99.9688 76.9102 102.898 83.1602 107.586 87.457Z" fill="#FFD66C"/>
<path d="M153.173 112.966C153.094 104.684 146.337 98.0437 138.055 98.1218C131.259 98.1999 125.555 102.77 123.798 108.981C121.923 102.809 116.141 98.3171 109.344 98.3561C101.063 98.4343 94.4226 105.192 94.5007 113.473C94.5397 118.044 96.6491 122.145 99.8913 124.841C100.008 124.997 100.126 125.153 100.282 125.309L117.509 145.778C121.298 150.309 127.43 150.231 131.18 145.661L148.055 124.88C148.446 124.411 148.758 123.903 149.032 123.473C151.61 120.739 153.212 117.028 153.173 112.966Z" fill="#DB4646"/>
<path d="M108.641 102.222C103.407 103.277 99.7741 107.417 99.1101 112.652C98.8757 114.683 102.04 114.644 102.274 112.652C102.743 108.784 105.751 106.05 109.462 105.308C111.493 104.878 110.633 101.831 108.641 102.222Z" fill="#E7AD84"/>
</svg>
