<svg width="244" height="218" viewBox="0 0 244 218" fill="none" xmlns="http://www.w3.org/2000/svg">
<path d="M186.388 190.353C146.963 210.661 97.5957 223.718 54.0067 214.569C39.1205 213.041 1.89528 178.441 0.731277 138.692C-0.503204 96.5365 -2.77388 63.0751 41.0915 19.2263C52.3923 7.92978 78.28 -8.57515 154.157 5.95607C197.746 17.2567 232.557 43.6003 241.278 85.4169C252.753 140.445 217.062 174.553 186.388 190.353Z" fill="#E5F5FF"/>
<path d="M81.9648 118.891C84.8555 121.781 89.3086 122.172 92.668 120.102C90.6758 123.617 91.1836 128.11 94.1523 131.078C97.1992 134.125 101.848 134.555 105.363 132.445C103.254 135.961 103.684 140.61 106.73 143.656C109.777 146.703 114.426 147.133 117.941 145.024C115.832 148.539 116.262 153.188 119.309 156.235C122.902 159.828 128.684 159.828 132.277 156.235L167.199 121.313C183.059 105.453 184.816 81.2345 171.066 67.5236C157.355 53.8127 133.137 55.5314 117.277 71.3908L81.9648 106.703C78.6055 110.102 78.6055 115.531 81.9648 118.891Z" fill="#EBB290"/>
<path d="M123.137 156.625C126.028 153.735 126.418 149.282 124.309 145.922C127.824 147.914 132.317 147.407 135.285 144.438C138.332 141.391 138.762 136.743 136.653 133.227C140.168 135.336 144.817 134.907 147.863 131.86C150.91 128.813 151.34 124.164 149.231 120.649C152.746 122.758 157.395 122.329 160.442 119.282C164.035 115.688 164.035 109.907 160.442 106.313L125.52 71.391C109.66 55.5317 85.4416 53.7739 71.7306 67.5239C58.0197 81.2348 59.7384 105.454 75.5978 121.313L110.91 156.625C114.309 159.985 119.778 159.985 123.137 156.625Z" fill="#FFDBC5"/>
<path d="M136.77 84.4375C140.363 80.8437 140.363 75.0625 136.77 71.4687C133.176 67.875 127.395 67.875 123.801 71.4687L108.605 86.6641C105.012 90.2578 105.012 96.0391 108.605 99.6328C112.199 103.227 117.98 103.227 121.574 99.6328L136.77 84.4375Z" fill="#EBB290"/>
<path d="M134.074 110.65C140.09 116.665 146.066 122.642 152.082 128.657C153.762 130.337 156.34 127.759 154.66 126.079C148.645 120.064 142.668 114.087 136.652 108.071C135.012 106.392 132.434 108.97 134.074 110.65Z" fill="#EBB290"/>
<path d="M122.199 122.525C128.215 128.54 134.191 134.517 140.207 140.532C141.887 142.212 144.465 139.634 142.785 137.954C136.77 131.939 130.793 125.962 124.777 119.946C123.137 118.267 120.559 120.845 122.199 122.525Z" fill="#EBB290"/>
<path d="M110.362 134.4C116.378 140.415 122.355 146.392 128.37 152.407C130.05 154.087 132.628 151.509 130.948 149.829C124.933 143.814 118.956 137.837 112.941 131.821C111.261 130.142 108.683 132.72 110.362 134.4Z" fill="#EBB290"/>
</svg>
