<svg width="244" height="218" viewBox="0 0 244 218" fill="none" xmlns="http://www.w3.org/2000/svg">
<path d="M57.0884 27.4437C96.5133 7.1355 145.881 -5.92073 189.47 3.22766C204.356 4.7556 241.581 39.3555 242.745 79.1047C243.98 121.26 246.25 154.722 202.385 198.571C191.084 209.867 165.197 226.372 89.3196 211.841C45.7307 200.54 10.9197 174.197 2.19901 132.38C-9.27687 77.3521 26.4148 43.2441 57.0884 27.4437Z" fill="#E5F5FF"/>
<path d="M187.208 147.954C185.65 144.932 181.873 143.704 178.851 145.31L162.23 152.723C159.161 154.281 157.981 158.058 159.586 161.08C161.191 164.102 164.922 165.33 167.944 163.724L184.564 156.311C187.633 154.706 188.814 150.976 187.208 147.954Z" fill="#FFDBC5"/>
<path d="M107.175 127.084H77.6641V157.303H107.175C113.266 157.303 118.743 152.959 118.743 147.907V136.197C118.743 131.05 113.313 127.084 107.175 127.084Z" fill="#FFDBC5"/>
<path d="M136.875 148.52C138.764 144.648 137.159 139.974 133.287 138.085L113.692 127.792C109.82 125.903 105.145 127.509 103.257 131.38C101.368 135.252 102.973 139.927 106.845 141.815L126.44 152.109C130.359 153.997 134.987 152.392 136.875 148.52Z" fill="#FFDBC5"/>
<path d="M149.058 162.073C151.041 156.926 148.444 151.166 143.297 149.183L117.139 138.276C111.992 136.293 106.231 138.889 104.248 144.036C102.265 149.183 104.862 154.943 110.009 156.926L136.167 167.834C141.314 169.817 147.074 167.22 149.058 162.073Z" fill="#FFDBC5"/>
<path d="M165.866 151.73C166.527 155.791 167.472 159.757 168.463 163.771L143.343 169.059C138.716 170.051 134.183 167.123 133.286 162.732C132.342 158.341 135.317 153.855 139.944 152.864L165.866 151.73Z" fill="#FFDBC5"/>
<path d="M141.692 142.193C141.739 147.434 145.658 151.731 150.427 151.826L158.076 152.015C157.982 152.959 157.793 153.62 157.509 154.328C155.998 157.822 152.221 159.475 149.058 157.822L131.776 148.945C129.746 147.907 128.424 145.782 128.188 143.468C132.768 143.327 137.253 142.949 141.692 142.193Z" fill="#E8B494"/>
<path d="M158.122 143.893C157.98 147.765 154.722 150.787 150.851 150.645L129.839 149.89C125.967 149.748 122.945 146.49 123.087 142.618C123.228 138.746 126.486 135.724 130.358 135.866L151.37 136.622C155.242 136.763 158.264 140.021 158.122 143.893Z" fill="#FFDBC5"/>
<path d="M90.885 127.084H70.1094V157.303H90.885V127.084Z" fill="#E8B494"/>
<path d="M55 167.692H73.6981C79.4586 167.692 84.2747 163.017 84.2747 157.304V125.196C84.2747 119.436 79.4586 114.809 73.6981 114.809H55V167.692Z" fill="#EFEFEF"/>
<path d="M143.154 67.5431C139.188 67.5903 135.269 67.6375 131.303 67.6847C130.169 67.6847 128.989 67.6847 127.856 67.6847C126.581 67.6847 125.637 67.4486 124.645 66.9293C122.662 65.8905 121.482 63.8601 121.387 61.7826C121.245 59.5161 122.379 57.4386 124.126 56.2581C125.07 55.6443 126.109 55.2666 126.959 55.2194C127.525 55.1721 128.139 55.2194 128.706 55.2666C129.556 55.361 128.092 55.1721 128.942 55.3138C129.272 55.361 129.603 55.4555 129.933 55.5499C130.169 55.5971 130.406 55.6915 130.642 55.786C131.397 56.0693 130.075 55.5027 130.831 55.8804C131.255 56.0693 131.68 56.3526 132.105 56.5887C132.294 56.7303 132.53 56.872 132.719 57.0136C133.38 57.4858 132.247 56.6359 132.861 57.1553C133.286 57.533 133.711 57.9107 134.089 58.3357C134.419 58.6662 134.75 59.044 135.08 59.4217C135.599 60.0355 134.702 58.9495 135.222 59.5634C135.363 59.7522 135.505 59.9411 135.647 60.1772C136.261 61.0271 136.78 61.9242 137.252 62.8686C137.535 63.4352 137.819 63.9546 138.055 64.5212C138.102 64.6628 138.527 65.6072 138.196 64.8045C138.291 65.0878 138.433 65.3239 138.527 65.6072C138.905 66.5515 139.235 67.4959 139.519 68.4874C139.802 69.4318 140.085 70.4233 140.274 71.4149C140.605 73.0203 142.493 73.9174 143.957 73.5397C145.61 73.0675 146.365 71.4621 146.082 69.8567C145.657 67.8264 144.996 65.796 144.24 63.8601C142.682 59.8467 140.557 55.9276 137.252 53.0474C133.003 49.3644 127.384 48.2312 122.19 50.5449C119.262 51.8669 117.232 54.5583 116.052 57.4386C114.824 60.5077 115.296 64.0018 116.618 66.9765C117.846 69.7623 120.443 71.8871 123.229 72.9731C125.825 74.0118 128.611 73.823 131.35 73.7758C135.316 73.7286 139.235 73.6813 143.201 73.6341C147.026 73.5397 147.026 67.4959 143.154 67.5431Z" fill="#2961A5"/>
<path d="M145.279 73.5871C149.245 73.6343 153.164 73.6815 157.13 73.7287C159.869 73.7287 162.655 73.9648 165.252 72.926C168.179 71.7456 170.682 69.5264 171.957 66.5989C174.648 60.5551 172.145 53.0948 165.96 50.3562C160.766 48.0425 155.147 49.5535 150.992 53.1892C147.781 55.975 145.751 59.9413 144.193 63.8131C143.437 65.749 142.776 67.7321 142.351 69.8097C142.021 71.4151 142.776 73.0677 144.476 73.4926C145.987 73.9176 147.876 73.0205 148.159 71.3679C148.584 69.3375 149.245 67.3072 150.001 65.3713C150.095 65.1824 150.142 64.9935 150.237 64.7574C149.906 65.5129 150.237 64.8047 150.284 64.663C150.473 64.238 150.662 63.8131 150.898 63.3881C151.37 62.4438 151.889 61.5467 152.456 60.6967C152.739 60.2718 153.022 59.8941 153.306 59.4691C153.778 58.8081 152.928 59.9413 153.447 59.3274C153.589 59.1386 153.778 58.9497 153.92 58.7608C154.25 58.3831 154.581 58.0526 154.958 57.7221C155.147 57.5332 155.336 57.3915 155.478 57.2499C155.619 57.1555 155.714 57.061 155.855 56.9194C155.572 57.1554 155.572 57.1554 155.808 56.9666C156.186 56.6833 156.611 56.4472 157.036 56.2111C157.225 56.0694 157.461 55.975 157.697 55.8806C158.452 55.5028 157.13 56.1167 157.886 55.7861C158.358 55.5973 158.83 55.4556 159.302 55.3612C159.397 55.314 160.247 55.2195 159.538 55.314C159.869 55.2668 160.247 55.2668 160.577 55.2195C161.71 55.1723 162.749 55.4084 163.505 55.7861C164.543 56.3055 165.441 57.1082 166.007 57.9109C166.621 58.8553 166.999 59.8941 167.046 60.744C167.188 62.066 166.904 63.1993 166.479 64.0964C165.488 66.1267 163.505 67.4488 161.522 67.6377C158.264 67.921 154.864 67.6377 151.606 67.5905C149.481 67.5433 147.404 67.5433 145.279 67.496C141.407 67.496 141.407 73.5399 145.279 73.5871Z" fill="#2961A5"/>
<path d="M170.776 116.838C170.776 119.293 168.793 121.324 166.291 121.324H122.048C119.593 121.324 117.562 119.34 117.562 116.838V79.0169C117.562 76.5616 119.546 74.5312 122.048 74.5312H166.338C168.793 74.5312 170.824 76.5144 170.824 79.0169V116.838H170.776Z" fill="#EFEFEF"/>
<path d="M170.776 88.8843V76.9856C170.776 75.0969 168.793 73.5859 166.291 73.5859H122.048C119.593 73.5859 117.562 75.0969 117.562 76.9856V88.8843H170.776Z" fill="#BABABA"/>
<path d="M174.365 84.5412V76.6087C174.365 74.1534 172.382 72.123 169.88 72.123H118.507C116.052 72.123 114.021 74.1062 114.021 76.6087V84.5412H174.365Z" fill="#EFEFEF"/>
<path d="M172.665 95.9219H115.627V105.035H172.665V95.9219Z" fill="#2961A5"/>
<path d="M155.431 95.7324H132.955V105.081H155.431V95.7324Z" fill="#163A63"/>
<path d="M148.868 72.1699H139.377V122.834H148.868V72.1699Z" fill="#2961A5"/>
</svg>
